<svg width="32" height="32" viewBox="0 0 32 32" fill="none" xmlns="http://www.w3.org/2000/svg">
<path fill-rule="evenodd" clip-rule="evenodd" d="M32 1.6C32 0.716344 31.3369 0 30.5189 0H28.3884C26.3495 0 24.5722 1.49903 24.0777 3.63583L23.8083 4.8H4.44732C1.05714 4.8 -1.07851 8.73383 0.565758 11.9311L4.67995 19.9311C5.46362 21.4549 6.95045 22.4 8.56412 22.4H19.3194C21.3583 22.4 23.1356 20.901 23.6301 18.7642L26.9515 4.41194C27.1163 3.69968 27.7088 3.2 28.3884 3.2H30.5189C31.3369 3.2 32 2.48366 32 1.6ZM23.0678 8L20.7563 17.9881C20.5915 18.7003 19.999 19.2 19.3194 19.2H8.56412C8.02623 19.2 7.53062 18.885 7.2694 18.377L3.1552 10.377C2.60568 9.30849 3.32021 8 4.44732 8H23.0678Z" fill="#040921"/>
<path d="M18.67 28.8C18.67 30.5673 19.9962 32 21.6322 32C23.2682 32 24.5945 30.5673 24.5945 28.8C24.5945 27.0327 23.2682 25.6 21.6322 25.6C19.9962 25.6 18.67 27.0327 18.67 28.8Z" fill="#040921"/>
<path d="M3.85892 28.8C3.85892 30.5673 5.18515 32 6.82114 32C8.45713 32 9.78336 30.5673 9.78336 28.8C9.78336 27.0327 8.45713 25.6 6.82114 25.6C5.18515 25.6 3.85892 27.0327 3.85892 28.8Z" fill="#040921"/>
</svg>
